<mxfile host="app.diagrams.net" agent="Mozilla/5.0 (Windows NT 10.0; Win64; x64) AppleWebKit/537.36 (KHTML, like Gecko) Chrome/131.0.0.0 Safari/537.36" version="25.0.3">
  <diagram name="Page-1" id="Ryj9yUZ8EQG5fLTxCSdR">
    <mxGraphModel dx="2524" dy="738" grid="0" gridSize="10" guides="1" tooltips="1" connect="1" arrows="1" fold="1" page="1" pageScale="1" pageWidth="850" pageHeight="1100" math="0" shadow="0">
      <root>
        <mxCell id="0" />
        <mxCell id="1" parent="0" />
        <mxCell id="xWfjn0e1hHcwTTaFBlyH-46" value="" style="group" parent="1" vertex="1" connectable="0">
          <mxGeometry x="-463" y="80" width="479" height="60" as="geometry" />
        </mxCell>
        <mxCell id="xWfjn0e1hHcwTTaFBlyH-38" value="" style="group" parent="xWfjn0e1hHcwTTaFBlyH-46" vertex="1" connectable="0">
          <mxGeometry x="-5" y="-3" width="360" height="60" as="geometry" />
        </mxCell>
        <mxCell id="xWfjn0e1hHcwTTaFBlyH-40" value="&lt;u&gt;&lt;b&gt;&lt;font style=&quot;font-size: 16px;&quot;&gt;TableID&lt;/font&gt;&lt;/b&gt;&lt;/u&gt;" style="rounded=0;whiteSpace=wrap;html=1;fillColor=#C6D1DD;" parent="xWfjn0e1hHcwTTaFBlyH-38" vertex="1">
          <mxGeometry y="30" width="90" height="30" as="geometry" />
        </mxCell>
        <mxCell id="xWfjn0e1hHcwTTaFBlyH-41" value="&lt;u&gt;&lt;b&gt;&lt;font style=&quot;font-size: 16px;&quot;&gt;RestaurantID&lt;/font&gt;&lt;/b&gt;&lt;/u&gt;" style="rounded=0;whiteSpace=wrap;html=1;fillColor=#C6D1DD;" parent="xWfjn0e1hHcwTTaFBlyH-38" vertex="1">
          <mxGeometry x="90" y="30" width="124" height="30" as="geometry" />
        </mxCell>
        <mxCell id="xWfjn0e1hHcwTTaFBlyH-42" value="&lt;b&gt;&lt;font style=&quot;font-size: 16px;&quot;&gt;Status&lt;/font&gt;&lt;/b&gt;" style="rounded=0;whiteSpace=wrap;html=1;fillColor=#C6D1DD;" parent="xWfjn0e1hHcwTTaFBlyH-38" vertex="1">
          <mxGeometry x="214" y="30" width="90" height="30" as="geometry" />
        </mxCell>
        <mxCell id="xWfjn0e1hHcwTTaFBlyH-44" value="&lt;b&gt;&lt;font style=&quot;font-size: 16px;&quot;&gt;Capacity&lt;/font&gt;&lt;/b&gt;" style="rounded=0;whiteSpace=wrap;html=1;fillColor=#C6D1DD;" parent="xWfjn0e1hHcwTTaFBlyH-38" vertex="1">
          <mxGeometry x="304" y="30" width="90" height="30" as="geometry" />
        </mxCell>
        <mxCell id="xWfjn0e1hHcwTTaFBlyH-39" value="&lt;font style=&quot;font-size: 18px;&quot;&gt;TableID&lt;/font&gt;" style="text;html=1;align=center;verticalAlign=middle;resizable=0;points=[];autosize=1;strokeColor=none;fillColor=none;" parent="xWfjn0e1hHcwTTaFBlyH-38" vertex="1">
          <mxGeometry y="-4" width="79" height="34" as="geometry" />
        </mxCell>
        <mxCell id="xWfjn0e1hHcwTTaFBlyH-45" value="&lt;b&gt;&lt;font style=&quot;font-size: 16px;&quot;&gt;Location&lt;/font&gt;&lt;/b&gt;" style="rounded=0;whiteSpace=wrap;html=1;fillColor=#C6D1DD;" parent="xWfjn0e1hHcwTTaFBlyH-46" vertex="1">
          <mxGeometry x="389" y="27" width="90" height="30" as="geometry" />
        </mxCell>
        <mxCell id="AlLR8Mi9veF4PQIQg-oo-29" value="" style="group" parent="1" vertex="1" connectable="0">
          <mxGeometry x="-371" y="370" width="591" height="60" as="geometry" />
        </mxCell>
        <mxCell id="AlLR8Mi9veF4PQIQg-oo-13" value="" style="group" parent="AlLR8Mi9veF4PQIQg-oo-29" vertex="1" connectable="0">
          <mxGeometry width="450" height="60" as="geometry" />
        </mxCell>
        <mxCell id="AlLR8Mi9veF4PQIQg-oo-14" value="" style="group" parent="AlLR8Mi9veF4PQIQg-oo-13" vertex="1" connectable="0">
          <mxGeometry width="360" height="60" as="geometry" />
        </mxCell>
        <mxCell id="AlLR8Mi9veF4PQIQg-oo-15" value="&lt;font style=&quot;font-size: 18px;&quot;&gt;Review&lt;/font&gt;" style="text;html=1;align=center;verticalAlign=middle;resizable=0;points=[];autosize=1;strokeColor=none;fillColor=none;" parent="AlLR8Mi9veF4PQIQg-oo-14" vertex="1">
          <mxGeometry x="2" y="-2" width="77" height="34" as="geometry" />
        </mxCell>
        <mxCell id="AlLR8Mi9veF4PQIQg-oo-16" value="&lt;u&gt;&lt;b&gt;&lt;font style=&quot;font-size: 16px;&quot;&gt;ReviewID&lt;/font&gt;&lt;/b&gt;&lt;/u&gt;" style="rounded=0;whiteSpace=wrap;html=1;fillColor=#C6D1DD;" parent="AlLR8Mi9veF4PQIQg-oo-14" vertex="1">
          <mxGeometry y="30" width="90" height="30" as="geometry" />
        </mxCell>
        <mxCell id="AlLR8Mi9veF4PQIQg-oo-17" value="&lt;u&gt;&lt;b&gt;&lt;font style=&quot;font-size: 16px;&quot;&gt;CostumerID&lt;/font&gt;&lt;/b&gt;&lt;/u&gt;" style="rounded=0;whiteSpace=wrap;html=1;fillColor=#C6D1DD;" parent="AlLR8Mi9veF4PQIQg-oo-14" vertex="1">
          <mxGeometry x="90" y="30" width="110" height="30" as="geometry" />
        </mxCell>
        <mxCell id="AlLR8Mi9veF4PQIQg-oo-18" value="&lt;u&gt;&lt;b&gt;&lt;font style=&quot;font-size: 16px;&quot;&gt;RestaurantID&lt;/font&gt;&lt;/b&gt;&lt;/u&gt;" style="rounded=0;whiteSpace=wrap;html=1;fillColor=#C6D1DD;" parent="AlLR8Mi9veF4PQIQg-oo-14" vertex="1">
          <mxGeometry x="200" y="30" width="121" height="30" as="geometry" />
        </mxCell>
        <mxCell id="AlLR8Mi9veF4PQIQg-oo-19" value="&lt;b&gt;&lt;font style=&quot;font-size: 16px;&quot;&gt;Comments&lt;/font&gt;&lt;/b&gt;" style="rounded=0;whiteSpace=wrap;html=1;fillColor=#C6D1DD;" parent="AlLR8Mi9veF4PQIQg-oo-13" vertex="1">
          <mxGeometry x="321" y="30" width="90" height="30" as="geometry" />
        </mxCell>
        <mxCell id="AlLR8Mi9veF4PQIQg-oo-20" value="&lt;b&gt;&lt;font style=&quot;font-size: 16px;&quot;&gt;Rating&lt;/font&gt;&lt;/b&gt;" style="rounded=0;whiteSpace=wrap;html=1;fillColor=#C6D1DD;" parent="AlLR8Mi9veF4PQIQg-oo-29" vertex="1">
          <mxGeometry x="411" y="30" width="90" height="30" as="geometry" />
        </mxCell>
        <mxCell id="AlLR8Mi9veF4PQIQg-oo-28" value="&lt;b&gt;&lt;font style=&quot;font-size: 16px;&quot;&gt;Date&lt;/font&gt;&lt;/b&gt;" style="rounded=0;whiteSpace=wrap;html=1;fillColor=#C6D1DD;" parent="AlLR8Mi9veF4PQIQg-oo-29" vertex="1">
          <mxGeometry x="501" y="30" width="90" height="30" as="geometry" />
        </mxCell>
        <mxCell id="bmBi3C2C3GRsxxOYo_EL-12" value="" style="group" parent="1" vertex="1" connectable="0">
          <mxGeometry x="-771" y="605" width="520" height="60" as="geometry" />
        </mxCell>
        <mxCell id="AlLR8Mi9veF4PQIQg-oo-2" value="" style="group" parent="bmBi3C2C3GRsxxOYo_EL-12" vertex="1" connectable="0">
          <mxGeometry width="360" height="60" as="geometry" />
        </mxCell>
        <mxCell id="AlLR8Mi9veF4PQIQg-oo-3" value="&lt;font style=&quot;font-size: 18px;&quot;&gt;Payment&lt;/font&gt;" style="text;html=1;align=center;verticalAlign=middle;resizable=0;points=[];autosize=1;strokeColor=none;fillColor=none;" parent="AlLR8Mi9veF4PQIQg-oo-2" vertex="1">
          <mxGeometry x="-4" y="-2" width="89" height="34" as="geometry" />
        </mxCell>
        <mxCell id="AlLR8Mi9veF4PQIQg-oo-4" value="&lt;u&gt;&lt;b&gt;&lt;font style=&quot;font-size: 16px;&quot;&gt;PaymentID&lt;/font&gt;&lt;/b&gt;&lt;/u&gt;" style="rounded=0;whiteSpace=wrap;html=1;fillColor=#C6D1DD;" parent="AlLR8Mi9veF4PQIQg-oo-2" vertex="1">
          <mxGeometry y="30" width="119" height="30" as="geometry" />
        </mxCell>
        <mxCell id="AlLR8Mi9veF4PQIQg-oo-5" value="&lt;u&gt;&lt;b&gt;&lt;font style=&quot;font-size: 16px;&quot;&gt;ReservationID&lt;/font&gt;&lt;/b&gt;&lt;/u&gt;" style="rounded=0;whiteSpace=wrap;html=1;fillColor=#C6D1DD;" parent="AlLR8Mi9veF4PQIQg-oo-2" vertex="1">
          <mxGeometry x="119" y="30" width="130" height="30" as="geometry" />
        </mxCell>
        <mxCell id="AlLR8Mi9veF4PQIQg-oo-6" value="&lt;b&gt;&lt;font style=&quot;font-size: 16px;&quot;&gt;Status&lt;/font&gt;&lt;/b&gt;" style="rounded=0;whiteSpace=wrap;html=1;fillColor=#C6D1DD;" parent="AlLR8Mi9veF4PQIQg-oo-2" vertex="1">
          <mxGeometry x="249" y="30" width="90" height="30" as="geometry" />
        </mxCell>
        <mxCell id="AlLR8Mi9veF4PQIQg-oo-8" value="&lt;b&gt;&lt;font style=&quot;font-size: 16px;&quot;&gt;Amount&lt;/font&gt;&lt;/b&gt;" style="rounded=0;whiteSpace=wrap;html=1;fillColor=#C6D1DD;" parent="bmBi3C2C3GRsxxOYo_EL-12" vertex="1">
          <mxGeometry x="430" y="30" width="90" height="30" as="geometry" />
        </mxCell>
        <mxCell id="AlLR8Mi9veF4PQIQg-oo-7" value="&lt;b&gt;&lt;font style=&quot;font-size: 16px;&quot;&gt;Method&lt;/font&gt;&lt;/b&gt;" style="rounded=0;whiteSpace=wrap;html=1;fillColor=#C6D1DD;" parent="bmBi3C2C3GRsxxOYo_EL-12" vertex="1">
          <mxGeometry x="340" y="30" width="90" height="30" as="geometry" />
        </mxCell>
        <mxCell id="bmBi3C2C3GRsxxOYo_EL-14" value="" style="group" parent="1" vertex="1" connectable="0">
          <mxGeometry x="24" y="619" width="503" height="67" as="geometry" />
        </mxCell>
        <mxCell id="AlLR8Mi9veF4PQIQg-oo-21" value="" style="group" parent="bmBi3C2C3GRsxxOYo_EL-14" vertex="1" connectable="0">
          <mxGeometry x="2" width="450" height="67" as="geometry" />
        </mxCell>
        <mxCell id="AlLR8Mi9veF4PQIQg-oo-22" value="" style="group" parent="AlLR8Mi9veF4PQIQg-oo-21" vertex="1" connectable="0">
          <mxGeometry width="360" height="67" as="geometry" />
        </mxCell>
        <mxCell id="bmBi3C2C3GRsxxOYo_EL-55" value="" style="group" parent="AlLR8Mi9veF4PQIQg-oo-22" vertex="1" connectable="0">
          <mxGeometry x="-13" y="-2" width="334" height="62" as="geometry" />
        </mxCell>
        <mxCell id="AlLR8Mi9veF4PQIQg-oo-23" value="&lt;font style=&quot;font-size: 18px;&quot;&gt;Notification&lt;/font&gt;" style="text;html=1;align=center;verticalAlign=middle;resizable=0;points=[];autosize=1;strokeColor=none;fillColor=none;" parent="bmBi3C2C3GRsxxOYo_EL-55" vertex="1">
          <mxGeometry width="107" height="34" as="geometry" />
        </mxCell>
        <mxCell id="AlLR8Mi9veF4PQIQg-oo-24" value="&lt;u&gt;&lt;b&gt;&lt;font style=&quot;font-size: 16px;&quot;&gt;NotificationID&lt;/font&gt;&lt;/b&gt;&lt;/u&gt;" style="rounded=0;whiteSpace=wrap;html=1;fillColor=#C6D1DD;" parent="bmBi3C2C3GRsxxOYo_EL-55" vertex="1">
          <mxGeometry x="13" y="32" width="126" height="30" as="geometry" />
        </mxCell>
        <mxCell id="AlLR8Mi9veF4PQIQg-oo-25" value="&lt;u&gt;&lt;b&gt;&lt;font style=&quot;font-size: 16px;&quot;&gt;CostumerID&lt;/font&gt;&lt;/b&gt;&lt;/u&gt;" style="rounded=0;whiteSpace=wrap;html=1;fillColor=#C6D1DD;" parent="bmBi3C2C3GRsxxOYo_EL-55" vertex="1">
          <mxGeometry x="139" y="32" width="105" height="30" as="geometry" />
        </mxCell>
        <mxCell id="AlLR8Mi9veF4PQIQg-oo-26" value="&lt;b&gt;&lt;font style=&quot;font-size: 16px;&quot;&gt;Message&lt;/font&gt;&lt;/b&gt;" style="rounded=0;whiteSpace=wrap;html=1;fillColor=#C6D1DD;" parent="bmBi3C2C3GRsxxOYo_EL-55" vertex="1">
          <mxGeometry x="244" y="32" width="90" height="30" as="geometry" />
        </mxCell>
        <mxCell id="AlLR8Mi9veF4PQIQg-oo-27" value="&lt;b&gt;&lt;font style=&quot;font-size: 16px;&quot;&gt;Type&lt;/font&gt;&lt;/b&gt;" style="rounded=0;whiteSpace=wrap;html=1;fillColor=#C6D1DD;" parent="AlLR8Mi9veF4PQIQg-oo-21" vertex="1">
          <mxGeometry x="322" y="30" width="90" height="30" as="geometry" />
        </mxCell>
        <mxCell id="AlLR8Mi9veF4PQIQg-oo-30" value="&lt;b&gt;&lt;font style=&quot;font-size: 16px;&quot;&gt;DateSent&lt;/font&gt;&lt;/b&gt;" style="rounded=0;whiteSpace=wrap;html=1;fillColor=#C6D1DD;" parent="bmBi3C2C3GRsxxOYo_EL-14" vertex="1">
          <mxGeometry x="413" y="30" width="90" height="30" as="geometry" />
        </mxCell>
        <mxCell id="bmBi3C2C3GRsxxOYo_EL-23" value="" style="group" parent="1" vertex="1" connectable="0">
          <mxGeometry x="73.99545454545455" y="493" width="467.0545454545456" height="62" as="geometry" />
        </mxCell>
        <mxCell id="xWfjn0e1hHcwTTaFBlyH-3" value="&lt;font style=&quot;font-size: 18px;&quot;&gt;Costumer&lt;/font&gt;" style="text;html=1;align=center;verticalAlign=middle;resizable=1;points=[];autosize=1;strokeColor=none;fillColor=none;container=0;movable=1;rotatable=1;deletable=1;editable=1;locked=0;connectable=1;" parent="bmBi3C2C3GRsxxOYo_EL-23" vertex="1">
          <mxGeometry x="-19" y="3" width="96" height="34" as="geometry" />
        </mxCell>
        <mxCell id="xWfjn0e1hHcwTTaFBlyH-29" value="&lt;u&gt;&lt;b&gt;&lt;font style=&quot;font-size: 16px;&quot;&gt;CostumerID&lt;/font&gt;&lt;/b&gt;&lt;/u&gt;" style="rounded=0;whiteSpace=wrap;html=1;fillColor=#C6D1DD;container=0;movable=1;resizable=1;rotatable=1;deletable=1;editable=1;locked=0;connectable=1;" parent="bmBi3C2C3GRsxxOYo_EL-23" vertex="1">
          <mxGeometry x="11.054545454545462" y="32" width="124.36363636363637" height="30" as="geometry" />
        </mxCell>
        <mxCell id="xWfjn0e1hHcwTTaFBlyH-30" value="&lt;b&gt;&lt;font style=&quot;font-size: 16px;&quot;&gt;Name&lt;/font&gt;&lt;/b&gt;" style="rounded=0;whiteSpace=wrap;html=1;fillColor=#C6D1DD;container=0;movable=1;resizable=1;rotatable=1;deletable=1;editable=1;locked=0;connectable=1;" parent="bmBi3C2C3GRsxxOYo_EL-23" vertex="1">
          <mxGeometry x="135.41818181818184" y="32" width="82.90909090909092" height="30" as="geometry" />
        </mxCell>
        <mxCell id="xWfjn0e1hHcwTTaFBlyH-31" value="&lt;b&gt;&lt;font style=&quot;font-size: 16px;&quot;&gt;Email&lt;/font&gt;&lt;/b&gt;" style="rounded=0;whiteSpace=wrap;html=1;fillColor=#C6D1DD;container=0;movable=1;resizable=1;rotatable=1;deletable=1;editable=1;locked=0;connectable=1;" parent="bmBi3C2C3GRsxxOYo_EL-23" vertex="1">
          <mxGeometry x="218.3272727272727" y="32" width="124.36363636363637" height="30" as="geometry" />
        </mxCell>
        <mxCell id="xWfjn0e1hHcwTTaFBlyH-33" value="&lt;b&gt;&lt;font style=&quot;font-size: 16px;&quot;&gt;PhoneNumber&lt;/font&gt;&lt;/b&gt;" style="rounded=0;whiteSpace=wrap;html=1;fillColor=#C6D1DD;container=0;movable=1;resizable=1;rotatable=1;deletable=1;editable=1;locked=0;connectable=1;" parent="bmBi3C2C3GRsxxOYo_EL-23" vertex="1">
          <mxGeometry x="342.6909090909092" y="32" width="124.36363636363637" height="30" as="geometry" />
        </mxCell>
        <mxCell id="bmBi3C2C3GRsxxOYo_EL-34" value="" style="group" parent="1" vertex="1" connectable="0">
          <mxGeometry x="-233" y="209" width="968" height="159" as="geometry" />
        </mxCell>
        <mxCell id="bmBi3C2C3GRsxxOYo_EL-24" value="" style="group" parent="bmBi3C2C3GRsxxOYo_EL-34" vertex="1" connectable="0">
          <mxGeometry x="2" width="966" height="159" as="geometry" />
        </mxCell>
        <mxCell id="bmBi3C2C3GRsxxOYo_EL-25" value="&lt;font style=&quot;font-size: 18px;&quot;&gt;Restaurant&lt;/font&gt;" style="text;html=1;align=center;verticalAlign=middle;resizable=0;points=[];autosize=1;strokeColor=none;fillColor=none;container=0;" parent="bmBi3C2C3GRsxxOYo_EL-24" vertex="1">
          <mxGeometry width="106" height="34" as="geometry" />
        </mxCell>
        <mxCell id="bmBi3C2C3GRsxxOYo_EL-27" value="&lt;u&gt;&lt;b&gt;&lt;font style=&quot;font-size: 16px;&quot;&gt;RestaurantID&lt;/font&gt;&lt;/b&gt;&lt;/u&gt;" style="rounded=0;whiteSpace=wrap;html=1;fillColor=#C6D1DD;container=0;" parent="bmBi3C2C3GRsxxOYo_EL-24" vertex="1">
          <mxGeometry x="17.482758620689662" y="32" width="121.03448275862067" height="30" as="geometry" />
        </mxCell>
        <mxCell id="bmBi3C2C3GRsxxOYo_EL-29" value="&lt;b&gt;&lt;font style=&quot;font-size: 16px;&quot;&gt;Name&lt;/font&gt;&lt;/b&gt;" style="rounded=0;whiteSpace=wrap;html=1;fillColor=#C6D1DD;container=0;" parent="bmBi3C2C3GRsxxOYo_EL-24" vertex="1">
          <mxGeometry x="138.51972413793095" y="32" width="84.67253639846741" height="30" as="geometry" />
        </mxCell>
        <mxCell id="bmBi3C2C3GRsxxOYo_EL-30" value="&lt;b&gt;&lt;font style=&quot;font-size: 16px;&quot;&gt;PhoneNumber&lt;/font&gt;&lt;/b&gt;" style="rounded=0;whiteSpace=wrap;html=1;fillColor=#C6D1DD;container=0;" parent="bmBi3C2C3GRsxxOYo_EL-24" vertex="1">
          <mxGeometry x="317.6063448275862" y="32" width="121.03448275862067" height="30" as="geometry" />
        </mxCell>
        <mxCell id="bmBi3C2C3GRsxxOYo_EL-31" value="&lt;b&gt;&lt;font style=&quot;font-size: 16px;&quot;&gt;RatingAverage&lt;/font&gt;&lt;/b&gt;" style="rounded=0;whiteSpace=wrap;html=1;fillColor=#C6D1DD;container=0;" parent="bmBi3C2C3GRsxxOYo_EL-24" vertex="1">
          <mxGeometry x="438.6408275862068" y="32" width="173.48275862068965" height="30" as="geometry" />
        </mxCell>
        <mxCell id="bmBi3C2C3GRsxxOYo_EL-33" value="&lt;font style=&quot;font-size: 16px;&quot;&gt;&lt;b&gt;Address&lt;/b&gt;&lt;/font&gt;" style="rounded=0;whiteSpace=wrap;html=1;fillColor=#C6D1DD;container=0;" parent="bmBi3C2C3GRsxxOYo_EL-24" vertex="1">
          <mxGeometry x="223.1923754789271" y="32" width="94.41237547892719" height="30" as="geometry" />
        </mxCell>
        <mxCell id="ahYQid_kACKRDKaUdBpu-9" value="" style="group" parent="bmBi3C2C3GRsxxOYo_EL-24" vertex="1" connectable="0">
          <mxGeometry x="288" y="91" width="430" height="68" as="geometry" />
        </mxCell>
        <mxCell id="ahYQid_kACKRDKaUdBpu-10" value="&lt;font style=&quot;font-size: 18px;&quot;&gt;Waitlist&lt;/font&gt;" style="text;html=1;align=center;verticalAlign=middle;resizable=0;points=[];autosize=1;strokeColor=none;fillColor=none;" parent="ahYQid_kACKRDKaUdBpu-9" vertex="1">
          <mxGeometry x="3" y="-2" width="75" height="34" as="geometry" />
        </mxCell>
        <mxCell id="ahYQid_kACKRDKaUdBpu-11" value="&lt;u&gt;&lt;b&gt;&lt;font style=&quot;font-size: 16px;&quot;&gt;WaitlistID&lt;/font&gt;&lt;/b&gt;&lt;/u&gt;" style="rounded=0;whiteSpace=wrap;html=1;fillColor=#C6D1DD;" parent="ahYQid_kACKRDKaUdBpu-9" vertex="1">
          <mxGeometry y="30" width="95" height="30" as="geometry" />
        </mxCell>
        <mxCell id="ahYQid_kACKRDKaUdBpu-12" value="&lt;u&gt;&lt;b&gt;&lt;font style=&quot;font-size: 16px;&quot;&gt;CostumerID&lt;/font&gt;&lt;/b&gt;&lt;/u&gt;" style="rounded=0;whiteSpace=wrap;html=1;fillColor=#C6D1DD;" parent="ahYQid_kACKRDKaUdBpu-9" vertex="1">
          <mxGeometry x="95" y="30" width="111" height="30" as="geometry" />
        </mxCell>
        <mxCell id="ahYQid_kACKRDKaUdBpu-13" value="&lt;u&gt;&lt;b&gt;&lt;font style=&quot;font-size: 16px;&quot;&gt;RestaurantID&lt;/font&gt;&lt;/b&gt;&lt;/u&gt;" style="rounded=0;whiteSpace=wrap;html=1;fillColor=#C6D1DD;" parent="ahYQid_kACKRDKaUdBpu-9" vertex="1">
          <mxGeometry x="206" y="30" width="118" height="30" as="geometry" />
        </mxCell>
        <mxCell id="ahYQid_kACKRDKaUdBpu-14" value="&lt;b&gt;&lt;font style=&quot;font-size: 16px;&quot;&gt;PlaceInQueue&lt;/font&gt;&lt;/b&gt;" style="rounded=0;whiteSpace=wrap;html=1;fillColor=#C6D1DD;" parent="ahYQid_kACKRDKaUdBpu-9" vertex="1">
          <mxGeometry x="326" y="30" width="120" height="30" as="geometry" />
        </mxCell>
        <mxCell id="bmBi3C2C3GRsxxOYo_EL-60" style="edgeStyle=orthogonalEdgeStyle;rounded=0;orthogonalLoop=1;jettySize=auto;html=1;exitX=0.25;exitY=0;exitDx=0;exitDy=0;entryX=0.75;entryY=1;entryDx=0;entryDy=0;" parent="bmBi3C2C3GRsxxOYo_EL-24" source="ahYQid_kACKRDKaUdBpu-13" target="bmBi3C2C3GRsxxOYo_EL-27" edge="1">
          <mxGeometry relative="1" as="geometry" />
        </mxCell>
        <mxCell id="bmBi3C2C3GRsxxOYo_EL-32" value="&lt;b&gt;&lt;font style=&quot;font-size: 16px;&quot;&gt;OpeningHours&lt;/font&gt;&lt;/b&gt;" style="rounded=0;whiteSpace=wrap;html=1;fillColor=#C6D1DD;container=0;" parent="bmBi3C2C3GRsxxOYo_EL-24" vertex="1">
          <mxGeometry x="612.12" y="32" width="122" height="30" as="geometry" />
        </mxCell>
        <mxCell id="bmBi3C2C3GRsxxOYo_EL-36" value="" style="group" parent="1" vertex="1" connectable="0">
          <mxGeometry x="125" y="75" width="320" height="60" as="geometry" />
        </mxCell>
        <mxCell id="_LEKjg5DS7PEy9klWyhB-6" value="" style="group" parent="bmBi3C2C3GRsxxOYo_EL-36" vertex="1" connectable="0">
          <mxGeometry width="260" height="60" as="geometry" />
        </mxCell>
        <mxCell id="_LEKjg5DS7PEy9klWyhB-1" value="&lt;font style=&quot;font-size: 18px;&quot;&gt;RestaurantAdministrator&lt;/font&gt;" style="text;html=1;align=center;verticalAlign=middle;resizable=0;points=[];autosize=1;strokeColor=none;fillColor=none;" parent="_LEKjg5DS7PEy9klWyhB-6" vertex="1">
          <mxGeometry x="-5" y="-4" width="212" height="34" as="geometry" />
        </mxCell>
        <mxCell id="_LEKjg5DS7PEy9klWyhB-2" value="&lt;u&gt;&lt;b&gt;&lt;font style=&quot;font-size: 16px;&quot;&gt;RestaurantAdministratorID&lt;/font&gt;&lt;/b&gt;&lt;/u&gt;" style="rounded=0;whiteSpace=wrap;html=1;fillColor=#C6D1DD;" parent="_LEKjg5DS7PEy9klWyhB-6" vertex="1">
          <mxGeometry x="-6" y="30" width="226" height="30" as="geometry" />
        </mxCell>
        <mxCell id="_LEKjg5DS7PEy9klWyhB-3" value="&lt;b&gt;&lt;font style=&quot;font-size: 16px;&quot;&gt;Email&lt;/font&gt;&lt;/b&gt;" style="rounded=0;whiteSpace=wrap;html=1;fillColor=#C6D1DD;" parent="bmBi3C2C3GRsxxOYo_EL-36" vertex="1">
          <mxGeometry x="220" y="30" width="100" height="30" as="geometry" />
        </mxCell>
        <mxCell id="bmBi3C2C3GRsxxOYo_EL-47" style="edgeStyle=orthogonalEdgeStyle;rounded=0;orthogonalLoop=1;jettySize=auto;html=1;exitX=0.5;exitY=1;exitDx=0;exitDy=0;entryX=0.75;entryY=0;entryDx=0;entryDy=0;" parent="1" source="xWfjn0e1hHcwTTaFBlyH-41" target="bmBi3C2C3GRsxxOYo_EL-27" edge="1">
          <mxGeometry relative="1" as="geometry" />
        </mxCell>
        <mxCell id="bmBi3C2C3GRsxxOYo_EL-48" style="edgeStyle=orthogonalEdgeStyle;rounded=0;orthogonalLoop=1;jettySize=auto;html=1;exitX=0.25;exitY=1;exitDx=0;exitDy=0;entryX=0.5;entryY=0;entryDx=0;entryDy=0;" parent="1" source="AlLR8Mi9veF4PQIQg-oo-17" target="xWfjn0e1hHcwTTaFBlyH-29" edge="1">
          <mxGeometry relative="1" as="geometry" />
        </mxCell>
        <mxCell id="bmBi3C2C3GRsxxOYo_EL-56" style="edgeStyle=orthogonalEdgeStyle;rounded=0;orthogonalLoop=1;jettySize=auto;html=1;exitX=0.25;exitY=0;exitDx=0;exitDy=0;entryX=0.75;entryY=1;entryDx=0;entryDy=0;" parent="1" source="AlLR8Mi9veF4PQIQg-oo-25" target="xWfjn0e1hHcwTTaFBlyH-29" edge="1">
          <mxGeometry relative="1" as="geometry" />
        </mxCell>
        <mxCell id="bmBi3C2C3GRsxxOYo_EL-59" style="edgeStyle=orthogonalEdgeStyle;rounded=0;orthogonalLoop=1;jettySize=auto;html=1;exitX=0.892;exitY=0.9;exitDx=0;exitDy=0;entryX=0.75;entryY=0;entryDx=0;entryDy=0;exitPerimeter=0;" parent="1" source="ahYQid_kACKRDKaUdBpu-12" target="xWfjn0e1hHcwTTaFBlyH-29" edge="1">
          <mxGeometry relative="1" as="geometry">
            <Array as="points">
              <mxPoint x="248" y="364" />
              <mxPoint x="245" y="364" />
              <mxPoint x="245" y="457" />
              <mxPoint x="178" y="457" />
            </Array>
          </mxGeometry>
        </mxCell>
        <mxCell id="bmBi3C2C3GRsxxOYo_EL-61" style="edgeStyle=orthogonalEdgeStyle;rounded=0;orthogonalLoop=1;jettySize=auto;html=1;exitX=0.25;exitY=0;exitDx=0;exitDy=0;entryX=0.623;entryY=0.94;entryDx=0;entryDy=0;entryPerimeter=0;" parent="1" source="AlLR8Mi9veF4PQIQg-oo-18" target="bmBi3C2C3GRsxxOYo_EL-27" edge="1">
          <mxGeometry relative="1" as="geometry" />
        </mxCell>
        <mxCell id="bmBi3C2C3GRsxxOYo_EL-62" value="" style="group" parent="1" vertex="1" connectable="0">
          <mxGeometry x="-821" y="485" width="739" height="63" as="geometry" />
        </mxCell>
        <mxCell id="bmBi3C2C3GRsxxOYo_EL-10" value="" style="group" parent="bmBi3C2C3GRsxxOYo_EL-62" vertex="1" connectable="0">
          <mxGeometry x="9" y="3" width="730" height="60" as="geometry" />
        </mxCell>
        <mxCell id="AlLR8Mi9veF4PQIQg-oo-11" value="" style="group" parent="bmBi3C2C3GRsxxOYo_EL-10" vertex="1" connectable="0">
          <mxGeometry width="590" height="60" as="geometry" />
        </mxCell>
        <mxCell id="xWfjn0e1hHcwTTaFBlyH-47" value="" style="group" parent="AlLR8Mi9veF4PQIQg-oo-11" vertex="1" connectable="0">
          <mxGeometry x="-9" y="-2" width="452" height="60" as="geometry" />
        </mxCell>
        <mxCell id="xWfjn0e1hHcwTTaFBlyH-48" value="" style="group" parent="xWfjn0e1hHcwTTaFBlyH-47" vertex="1" connectable="0">
          <mxGeometry width="362" height="60" as="geometry" />
        </mxCell>
        <mxCell id="xWfjn0e1hHcwTTaFBlyH-50" value="&lt;u&gt;&lt;font style=&quot;font-size: 16px;&quot;&gt;&lt;b&gt;ReservationID&lt;/b&gt;&lt;/font&gt;&lt;/u&gt;" style="rounded=0;whiteSpace=wrap;html=1;fillColor=#C6D1DD;" parent="xWfjn0e1hHcwTTaFBlyH-48" vertex="1">
          <mxGeometry y="30" width="130" height="30" as="geometry" />
        </mxCell>
        <mxCell id="xWfjn0e1hHcwTTaFBlyH-51" value="&lt;u&gt;&lt;font style=&quot;font-size: 16px;&quot;&gt;&lt;b&gt;RestaurantID&lt;/b&gt;&lt;/font&gt;&lt;/u&gt;" style="rounded=0;whiteSpace=wrap;html=1;fillColor=#C6D1DD;" parent="xWfjn0e1hHcwTTaFBlyH-48" vertex="1">
          <mxGeometry x="130" y="30" width="124" height="30" as="geometry" />
        </mxCell>
        <mxCell id="xWfjn0e1hHcwTTaFBlyH-52" value="&lt;u&gt;&lt;font style=&quot;font-size: 16px;&quot;&gt;&lt;b&gt;CostumerID&lt;/b&gt;&lt;/font&gt;&lt;/u&gt;" style="rounded=0;whiteSpace=wrap;html=1;fillColor=#C6D1DD;" parent="xWfjn0e1hHcwTTaFBlyH-48" vertex="1">
          <mxGeometry x="254" y="30" width="108" height="30" as="geometry" />
        </mxCell>
        <mxCell id="xWfjn0e1hHcwTTaFBlyH-53" value="&lt;b&gt;&lt;font style=&quot;font-size: 16px;&quot;&gt;Time&lt;/font&gt;&lt;/b&gt;" style="rounded=0;whiteSpace=wrap;html=1;fillColor=#C6D1DD;" parent="xWfjn0e1hHcwTTaFBlyH-47" vertex="1">
          <mxGeometry x="362" y="30" width="90" height="30" as="geometry" />
        </mxCell>
        <mxCell id="xWfjn0e1hHcwTTaFBlyH-54" value="&lt;b&gt;&lt;font style=&quot;font-size: 16px;&quot;&gt;Date&lt;/font&gt;&lt;/b&gt;" style="rounded=0;whiteSpace=wrap;html=1;fillColor=#C6D1DD;" parent="AlLR8Mi9veF4PQIQg-oo-11" vertex="1">
          <mxGeometry x="443" y="28" width="90" height="30" as="geometry" />
        </mxCell>
        <mxCell id="AlLR8Mi9veF4PQIQg-oo-10" value="&lt;b&gt;&lt;font style=&quot;font-size: 16px;&quot;&gt;NumbersOfCostumers&lt;/font&gt;&lt;/b&gt;" style="rounded=0;whiteSpace=wrap;html=1;fillColor=#C6D1DD;" parent="bmBi3C2C3GRsxxOYo_EL-10" vertex="1">
          <mxGeometry x="532" y="28" width="198" height="30" as="geometry" />
        </mxCell>
        <mxCell id="xWfjn0e1hHcwTTaFBlyH-49" value="&lt;font style=&quot;font-size: 18px;&quot;&gt;Reservation&lt;/font&gt;" style="text;html=1;align=center;verticalAlign=middle;resizable=0;points=[];autosize=1;strokeColor=none;fillColor=none;" parent="bmBi3C2C3GRsxxOYo_EL-62" vertex="1">
          <mxGeometry width="114" height="34" as="geometry" />
        </mxCell>
        <mxCell id="ahYQid_kACKRDKaUdBpu-1" value="" style="group" parent="1" vertex="1" connectable="0">
          <mxGeometry x="-757" y="254" width="472" height="62" as="geometry" />
        </mxCell>
        <mxCell id="ahYQid_kACKRDKaUdBpu-2" value="" style="group" parent="ahYQid_kACKRDKaUdBpu-1" vertex="1" connectable="0">
          <mxGeometry width="360" height="62" as="geometry" />
        </mxCell>
        <mxCell id="ahYQid_kACKRDKaUdBpu-3" value="&lt;font style=&quot;font-size: 18px;&quot;&gt;Preorder&lt;/font&gt;" style="text;html=1;align=center;verticalAlign=middle;resizable=0;points=[];autosize=1;strokeColor=none;fillColor=none;" parent="ahYQid_kACKRDKaUdBpu-2" vertex="1">
          <mxGeometry x="-4" y="-2" width="88" height="34" as="geometry" />
        </mxCell>
        <mxCell id="ahYQid_kACKRDKaUdBpu-4" value="&lt;u&gt;&lt;b&gt;&lt;font style=&quot;font-size: 16px;&quot;&gt;PreOrderID&lt;/font&gt;&lt;/b&gt;&lt;/u&gt;" style="rounded=0;whiteSpace=wrap;html=1;fillColor=#C6D1DD;" parent="ahYQid_kACKRDKaUdBpu-2" vertex="1">
          <mxGeometry y="30" width="90" height="30" as="geometry" />
        </mxCell>
        <mxCell id="ahYQid_kACKRDKaUdBpu-5" value="&lt;u&gt;&lt;b&gt;&lt;font style=&quot;font-size: 16px;&quot;&gt;ReservationID&lt;/font&gt;&lt;/b&gt;&lt;/u&gt;" style="rounded=0;whiteSpace=wrap;html=1;fillColor=#C6D1DD;" parent="ahYQid_kACKRDKaUdBpu-2" vertex="1">
          <mxGeometry x="90" y="30" width="144" height="30" as="geometry" />
        </mxCell>
        <mxCell id="ahYQid_kACKRDKaUdBpu-6" value="&lt;b&gt;&lt;font style=&quot;font-size: 16px;&quot;&gt;Status&lt;/font&gt;&lt;/b&gt;" style="rounded=0;whiteSpace=wrap;html=1;fillColor=#C6D1DD;" parent="ahYQid_kACKRDKaUdBpu-2" vertex="1">
          <mxGeometry x="234" y="30" width="90" height="30" as="geometry" />
        </mxCell>
        <mxCell id="ahYQid_kACKRDKaUdBpu-7" value="&lt;b&gt;&lt;font style=&quot;font-size: 16px;&quot;&gt;SpecialRequests&lt;/font&gt;&lt;/b&gt;" style="rounded=0;whiteSpace=wrap;html=1;fillColor=#C6D1DD;" parent="ahYQid_kACKRDKaUdBpu-1" vertex="1">
          <mxGeometry x="324" y="30" width="148" height="30" as="geometry" />
        </mxCell>
        <mxCell id="bmBi3C2C3GRsxxOYo_EL-64" style="edgeStyle=orthogonalEdgeStyle;rounded=0;orthogonalLoop=1;jettySize=auto;html=1;exitX=0.5;exitY=1;exitDx=0;exitDy=0;entryX=0.554;entryY=0.9;entryDx=0;entryDy=0;entryPerimeter=0;" parent="1" source="xWfjn0e1hHcwTTaFBlyH-52" target="xWfjn0e1hHcwTTaFBlyH-29" edge="1">
          <mxGeometry relative="1" as="geometry">
            <mxPoint x="151.23809523809496" y="633.1904761904761" as="targetPoint" />
            <Array as="points">
              <mxPoint x="-409" y="598" />
              <mxPoint x="156" y="598" />
              <mxPoint x="156" y="555" />
              <mxPoint x="154" y="555" />
            </Array>
          </mxGeometry>
        </mxCell>
        <mxCell id="bmBi3C2C3GRsxxOYo_EL-69" style="edgeStyle=orthogonalEdgeStyle;rounded=0;orthogonalLoop=1;jettySize=auto;html=1;exitX=0.5;exitY=1;exitDx=0;exitDy=0;entryX=0.935;entryY=0.095;entryDx=0;entryDy=0;entryPerimeter=0;" parent="1" source="ahYQid_kACKRDKaUdBpu-5" target="xWfjn0e1hHcwTTaFBlyH-50" edge="1">
          <mxGeometry relative="1" as="geometry" />
        </mxCell>
        <mxCell id="-WNG84d9UKhbwicELw42-1" style="edgeStyle=orthogonalEdgeStyle;rounded=0;orthogonalLoop=1;jettySize=auto;html=1;exitX=0.25;exitY=0;exitDx=0;exitDy=0;entryX=0.75;entryY=1;entryDx=0;entryDy=0;" parent="1" source="AlLR8Mi9veF4PQIQg-oo-5" target="xWfjn0e1hHcwTTaFBlyH-50" edge="1">
          <mxGeometry relative="1" as="geometry" />
        </mxCell>
        <mxCell id="YFUNEemHyFHbewMMBRnK-3" value="&lt;span style=&quot;font-size: 16px;&quot;&gt;&lt;b&gt;StartDate&lt;/b&gt;&lt;/span&gt;" style="rounded=0;whiteSpace=wrap;html=1;fillColor=#C6D1DD;" parent="1" vertex="1">
          <mxGeometry x="445" y="105" width="100" height="30" as="geometry" />
        </mxCell>
        <mxCell id="YFUNEemHyFHbewMMBRnK-4" style="edgeStyle=orthogonalEdgeStyle;rounded=0;orthogonalLoop=1;jettySize=auto;html=1;exitX=0.5;exitY=0;exitDx=0;exitDy=0;entryX=0.25;entryY=1;entryDx=0;entryDy=0;" parent="1" source="xWfjn0e1hHcwTTaFBlyH-51" target="bmBi3C2C3GRsxxOYo_EL-27" edge="1">
          <mxGeometry relative="1" as="geometry">
            <Array as="points">
              <mxPoint x="-629" y="458" />
              <mxPoint x="-411" y="458" />
              <mxPoint x="-411" y="347" />
              <mxPoint x="-186" y="347" />
            </Array>
          </mxGeometry>
        </mxCell>
        <mxCell id="YFUNEemHyFHbewMMBRnK-5" value="&lt;b&gt;&lt;font style=&quot;font-size: 16px;&quot;&gt;Status&lt;/font&gt;&lt;/b&gt;" style="rounded=0;whiteSpace=wrap;html=1;fillColor=#C6D1DD;" parent="1" vertex="1">
          <mxGeometry x="-82" y="516" width="100" height="30" as="geometry" />
        </mxCell>
      </root>
    </mxGraphModel>
  </diagram>
</mxfile>
